<?xml version="1.0" encoding="UTF-8"?>
<!-- Generated by jsxcad -->
<!DOCTYPE svg PUBLIC "-//W3C//DTD SVG 1.1 Tiny//EN" "http://www.w3.org/Graphics/SVG/1.1/DTD/svg11-tiny.dtd">
<svg baseProfile="tiny" height="51.98044676511002mm" width="101.95319813738496mm" viewBox="0 0 101.95319813738496 51.98044676511002" version="1.1" stroke="black" stroke-width=".1" fill="none" xmlns="http://www.w3.org/2000/svg">
<path fill="#000000" stroke="#000000" d="M27.10298 36.2883 L26.37675 34.40731 L25.79846 32.47569 L25.3716 30.50508 L25.09873 28.50731 L24.98149 26.4944 L25.02059 24.47846 L25.21579 22.47161 L25.56592 20.48592 L26.06887 18.53334 L26.72162 16.6256 L27.52025 14.77419 L28.45994 12.99022 L29.53505 11.28444 L30.73911 9.66711 L32.06488 8.14794 L33.50439 6.73608 L35.04898 5.44001 L36.68937 4.26754 L38.41567 3.22571 L40.21752 2.32079 L42.08408 1.55822 L44.00411 0.94258 L45.96608 0.47759 L47.95818 0.16603 L49.96844 0.00978 L51.98476 0.00978 L53.99501 0.16603 L55.98712 0.47759 L123.04582 13.30508 L124.86546 14.35565 L126.21605 15.96522 L126.93469 17.93965 L126.93469 20.04079 L126.21605 22.01522 L124.86546 23.62479 L123.04582 24.67536 L60.8098 50.05905 L58.91508 50.74867 L56.97261 51.28939 L54.99409 51.67796 L52.9914 51.91204 L50.9766 51.99022 L48.9618 51.91204 L46.95911 51.67796 L44.98059 51.28939 L43.03812 50.74867 L41.1434 50.05905 L39.30782 49.22467 L37.54242 48.25056 L35.85781 47.14258 L34.26412 45.90738 L32.77095 44.5524 L31.38727 43.08578 L30.1214 41.51635 L28.98095 39.85354 L27.97279 38.10735 M27.60119 34.85535 L28.39034 36.70754 L28.63649 37.17653 L29.32596 38.49022 L30.06291 39.65561 L30.402 40.19184 L31.5476 41.71635 L31.61148 41.80136 L32.94654 43.30833 L33.08489 43.44122 L34.39853 44.70299 L34.70425 44.9526 L35.95804 45.97629 L36.40913 46.28766 L37.61495 47.11998 L38.19084 47.45246 L39.35852 48.12662 L40.03974 48.44987 L41.17743 48.98971 L41.94548 49.28099 L43.0599 49.70363 L43.89716 49.94615 L44.99371 50.26377 L45.88347 50.44542 L46.96632 50.66648 L47.89281 50.77898 L48.96493 50.90916 L49.91333 50.94738 L50.9766 50.99022 L51.9331 50.95168 L52.98826 50.90916 L53.94012 50.79358 L54.98688 50.66648 L55.92248 50.47548 L56.95949 50.26377 L57.86835 50.00051 L58.8933 49.70363 L59.76613 49.37261 L60.77576 48.98971 L120.2764 24.72673 L122.83571 23.68311 L123.03062 23.60363 L124.72948 22.36933 L124.90031 22.07344 L125.77943 20.55076 L125.82566 20.111 L125.99893 18.46235 L125.85844 18.02996 L125.35003 16.46522 L125.01253 16.0904 L123.94491 14.90469 L123.17358 14.56127 L122.02655 14.05058 L120.15155 13.69435 L54.98972 1.31451 L54.98688 1.31397 L52.99634 1.07227 L52.98826 1.07129 L50.98478 0.99055 L50.9766 0.99022 L48.96703 1.07121 L48.96493 1.07129 L46.96632 1.31397 L46.95422 1.31644 L44.99371 1.71668 L44.95841 1.7269 L43.0599 2.27681 L42.9915 2.30275 L41.17743 2.99074 L41.06498 3.0441 L39.35852 3.85382 L39.18994 3.95115 L37.61495 4.86047 L37.37702 5.0247 L35.95804 6.00415 L35.6362 6.26693 L34.39853 7.27745 L33.97659 7.68273 L32.94654 8.67211 L32.40616 9.28208 L31.61148 10.17909 L30.93111 11.08449 L30.402 11.7886 L29.55483 13.1283 L29.32596 13.49022 L28.39034 15.27291 L28.22434 15.66253 L27.60119 17.1251 L26.96365 19.03479 L26.48183 20.98958 L26.30646 22.06867 L26.15888 22.97681 L26.15079 23.07698 L26.1111 23.56863 L26.08061 23.94635 L26.05638 24.24645 L26.03662 24.49129 L26.02014 24.6954 L26.00615 24.86866 L25.99687 24.98357 L25.99687 25.01393 L25.99687 25.1305 L25.99687 25.23552 L25.99687 25.33089 L25.99687 25.41815 L25.99687 25.49851 L25.99687 25.57298 L25.99687 25.64239 L25.99687 26.35783 L25.99687 26.371 L25.99687 26.38879 L25.99687 26.4092 L25.99687 26.43012 L25.99687 26.44947 L25.99687 26.46523 L25.99687 26.47556 L25.99687 26.99687 L26.01097 27.1715 L26.016 27.23382 L26.02138 27.30037 L26.02714 27.37181 L26.03337 27.44893 L26.04013 27.53271 L26.04753 27.62433 L26.05568 27.72528 L26.06473 27.83741 L26.07487 27.96307 L26.08636 28.10534 L26.09951 28.26826 L26.11477 28.4573 L26.13275 28.68002 L26.15432 28.94716 L26.15888 29.00364 L26.21631 29.35704 L26.3105 29.93664 L26.44731 30.77841 L26.48183 30.99087 L26.96365 32.94566 z"/>
<path fill="#000000" stroke="#000000" d="M25.371598430082088 30.505080340065675 L25.371598430082088 30.505080340065675 L25.79845944350022 32.47569012054545 L25.79845944350022 32.47569012054545 z"/>
<path fill="#000000" stroke="#000000" d="M26.376748370588054 34.40731048781391 L26.376748370588054 34.40731048781391 L25.79845922770848 32.4756902312089 L25.79845922770848 32.4756902312089 z"/>
<path fill="#000000" stroke="#000000" d="M28.390339410658864 36.70754025109479 L28.390339410658864 36.70754025109479 L27.601194141972048 34.855348235270625 L27.601194141972048 34.855348235270625 z"/>
<path fill="#000000" stroke="#000000" d="M30.12139919110748 41.51635065243502 L30.12139919110748 41.51635065243502 L31.387267939315105 43.085781662103386 L31.387267939315105 43.085781662103386 z"/>
<path fill="#000000" stroke="#000000" d="M30.402000803269736 40.19183949204299 L30.402000803269736 40.19183949204299 L30.062909870317256 39.6556100820064 L29.325961310884953 38.490219171046576 L29.325961310884953 38.490219171046576 L30.062909870317256 39.6556100820064 z"/>
<path fill="#000000" stroke="#000000" d="M34.26412098750386 45.907378725897615 L34.26412098750386 45.907378725897615 L35.857809555562724 47.142580573424176 L35.857809555562724 47.142580573424176 z"/>
<path fill="#000000" stroke="#000000" d="M34.39853002270597 44.70298997219023 L34.39853002270597 44.70298997219023 L34.70424872258471 44.95260156454969 L35.958039776179014 45.97629027413093 L35.958039776179014 45.97629027413093 L34.70424872258471 44.95260156454969 z"/>
<path fill="#000000" stroke="#000000" d="M37.54241734475712 48.25056403710066 L37.54241734475712 48.25056403710066 L35.8578098363729 47.142580248782906 L35.8578098363729 47.142580248782906 z"/>
<path fill="#000000" stroke="#000000" d="M39.307819300566436 49.224671538718916 L39.307819300566436 49.224671538718916 L41.14340175901438 50.05904613025614 L41.14340175901438 50.05904613025614 z"/>
<path fill="#000000" stroke="#000000" d="M43.059898755735624 49.70363429569894 L43.059898755735624 49.70363429569894 L43.89716000732308 49.946149974717784 L44.99371011932196 50.2637695880528 L44.99371011932196 50.2637695880528 L43.89716000732308 49.946149974717784 z"/>
<path fill="#000000" stroke="#000000" d="M43.03812063800926 50.748667708045055 L43.03812063800926 50.748667708045055 L44.980589738659155 51.289390938828724 L44.980589738659155 51.289390938828724 z"/>
<path fill="#000000" stroke="#000000" d="M46.95911006737561 51.677959423564765 L46.95911006737561 51.677959423564765 L48.961799964818056 51.91204030100068 L48.961799964818056 51.91204030100068 z"/>
<path fill="#000000" stroke="#000000" d="M46.96631996326124 50.666480302570875 L46.96631996326124 50.666480302570875 L47.89281041159094 50.778976610243554 L48.96493053882884 50.90915556234528 L48.96493053882884 50.90915556234528 L47.89281041159094 50.778976610243554 z"/>
<path fill="#000000" stroke="#000000" d="M50.97660013458132 50.99022333960115 L50.97660013458132 50.99022333960115 L51.93309990797568 50.95167771644012 L52.98825984785204 50.90915622448749 L52.98825984785204 50.90915622448749 L51.93309990797568 50.95167771644012 z"/>
<path fill="#000000" stroke="#000000" d="M54.986880009676646 50.6664800796944 L54.986880009676646 50.6664800796944 L53.94011997080673 50.7935797595718 L52.988259579399966 50.90915653604712 L52.988259579399966 50.90915653604712 L53.94011997080673 50.7935797595718 z"/>
<path fill="#000000" stroke="#000000" d="M50.97660012966093 51.9902233413846 L50.97660012966093 51.9902233413846 L52.99139999731744 51.912039930869945 L52.99139999731744 51.912039930869945 z"/>
<path fill="#000000" stroke="#000000" d="M58.89330110008874 49.70363379794691 L58.89330110008874 49.70363379794691 L57.868351203769265 50.00051415589363 L56.9594897365024 50.263769090300755 L56.9594897365024 50.263769090300755 L57.868351203769265 50.00051415589363 z"/>
<path fill="#000000" stroke="#000000" d="M58.915078902341484 50.74866698420801 L58.915078902341484 50.74866698420801 L60.809798361670694 50.05904549872722 L60.809798361670694 50.05904549872722 z"/>
<path fill="#000000" stroke="#000000" d="M60.77576036821973 48.98971097091564 L60.77576036821973 48.98971097091564 L59.76613108196153 49.37261285289811 L58.893301332633015 49.70363351386447 L58.893301332633015 49.70363351386447 L59.76613108196153 49.37261285289811 z"/>
<path fill="#000000" stroke="#000000" d="M54.986880621708416 1.3139667276123927 L54.986880621708416 1.3139667276123927 L54.9897207022525 1.3145063036653153 L120.15154939097067 13.694353205650634 L122.02655047519687 14.050577498781863 L122.02655047519687 14.050577498781863 L120.15154939097067 13.694353205650634 L54.9897207022525 1.3145063036653153 z"/>
<path fill="#000000" stroke="#000000" d="M125.77943434434408 20.550760456608963 L125.77943434434408 20.550760456608963 L125.82565508513012 20.11099948342636 L125.99893507227391 18.46235053311747 L125.99893507227391 18.46235053311747 L125.82565508513012 20.11099948342636 z"/>
<path fill="#000000" stroke="#000000" d="M123.94491374926085 14.90468662415035 L123.94491374926085 14.90468662415035 L125.01253268856252 16.090397579207426 L125.35002685879708 16.465222828351813 L125.35002685879708 16.465222828351813 L125.01253268856252 16.090397579207426 z"/>
<path fill="#000000" stroke="#000000" d="M126.21604995498335 15.965220037773447 L126.21604995498335 15.965220037773447 L124.865460193613 14.35564983753939 L124.865460193613 14.35564983753939 z"/>
<path fill="#000000" stroke="#000000" d="M123.04581947448213 13.305082747265848 L123.04581947448213 13.305082747265848 L55.98712079002109 0.47758586998250857 L55.98712079002109 0.47758586998250857 z"/>
<path fill="#000000" stroke="#000000" d="M123.03061915501785 23.60362792783142 L123.03061915501785 23.60362792783142 L122.83570907241138 23.68310772525371 L120.27640154779215 24.726733795685274 L60.775760431335236 48.98971105777305 L60.775760431335236 48.98971105777305 L120.27640154779215 24.726733795685274 L122.83570907241138 23.68310772525371 z"/>
<path fill="#000000" stroke="#000000" d="M29.32596436685574 13.490222761432253 L29.32596436685574 13.490222761432253 L29.55483032423868 13.128300205036117 L30.402003859240534 11.788602440435845 L30.402003859240534 11.788602440435845 L29.55483032423868 13.128300205036117 z"/>
<path fill="#000000" stroke="#000000" d="M46.96631925796775 1.3139663652856168 L46.96631925796775 1.3139663652856168 L46.954219303570426 1.3164365886623524 L44.99370949606145 1.7166775315457348 L44.99370949606145 1.7166775315457348 L46.954219303570426 1.3164365886623524 z"/>
<path fill="#000000" stroke="#000000" d="M43.059900563595676 2.2768119457580096 L43.059900563595676 2.2768119457580096 L44.95841052947152 1.7269018279477648 L44.99370925485289 1.7166774274537382 L44.99370925485289 1.7166774274537382 L44.95841052947152 1.7269018279477648 z"/>
<path fill="#000000" stroke="#000000" d="M41.17742958244827 2.9907388990065753 L41.17742958244827 2.9907388990065753 L42.99150090773719 2.302752393506257 L43.05990067620202 2.276811782998202 L43.05990067620202 2.276811782998202 L42.99150090773719 2.302752393506257 z"/>
<path fill="#000000" stroke="#000000" d="M40.21751881034238 2.3207876311969358 L40.21751881034238 2.3207876311969358 L38.4156700463186 3.22571009222793 L38.4156700463186 3.22571009222793 z"/>
<path fill="#000000" stroke="#000000" d="M39.35852101897298 3.853822147440071 L39.35852101897298 3.853822147440071 L41.06497895163777 3.0440977906234115 L41.17742965326218 2.9907392692655357 L41.17742965326218 2.9907392692655357 L41.06497895163777 3.0440977906234115 z"/>
<path fill="#000000" stroke="#000000" d="M35.04898397928476 5.440014742326913 L35.04898397928476 5.440014742326913 L33.50439146769021 6.736081749125088 L33.50439146769021 6.736081749125088 z"/>
<path fill="#000000" stroke="#000000" d="M35.958043090374794 6.004153785021988 L35.958043090374794 6.004153785021988 L35.63620026196052 6.266930320843392 L34.39853333690174 7.277454086962682 L34.39853333690174 7.277454086962682 L35.63620026196052 6.266930320843392 z"/>
<path fill="#000000" stroke="#000000" d="M49.96843973515897 0.009776592639212909 L49.96843973515897 0.009776592639212909 L47.95817971706623 0.16602635986378153 L47.95817971706623 0.16602635986378153 z"/>
<path fill="#000000" stroke="#000000" d="M30.739109983754098 9.667109987905373 L30.739109983754098 9.667109987905373 L29.53505154496655 11.284441150184982 L29.53505154496655 11.284441150184982 z"/>
<path fill="#000000" stroke="#000000" d="M28.390338322925977 15.272909119803654 L28.390338322925977 15.272909119803654 L29.325964507702658 13.490222365824861 L29.325964507702658 13.490222365824861 z"/>
<path fill="#000000" stroke="#000000" d="M27.520245075073834 14.774187875594222 L27.520245075073834 14.774187875594222 L26.72162323782701 16.625601396662237 L26.72162323782701 16.625601396662237 z"/>
<path fill="#000000" stroke="#000000" d="M27.601192975466756 17.12510126772791 L27.601192975466756 17.12510126772791 L28.22433691672783 15.662528686340496 L28.390338244153583 15.272909251903755 L28.390338244153583 15.272909251903755 L28.22433691672783 15.662528686340496 z"/>
<path fill="#000000" stroke="#000000" d="M28.459940275577914 12.990220145159187 L28.459940275577914 12.990220145159187 L27.520245104450627 14.77418742129569 L27.520245104450627 14.77418742129569 z"/>
<path fill="#000000" stroke="#000000" d="M26.96364568535418 19.034788559559573 L26.96364568535418 19.034788559559573 L27.60119306296036 17.12510102256642 L27.60119306296036 17.12510102256642 z"/>
<path fill="#000000" stroke="#000000" d="M26.158876943614153 22.976809753263026 L26.158876943614153 22.976809753263026 L26.150790362924763 23.076980029298312 L26.11110027226995 23.5686300219799 L26.08060757902107 23.946349804558373 L26.056380980260222 24.246450079134785 L26.036615487852476 24.491289635741794 L26.020138008748674 24.69539983924957 L26.006150996075117 24.868660080411495 L25.996874479152076 24.983570361594538 L25.996874479152076 24.983570361594538 L26.006150996075117 24.868660080411495 L26.020138008748674 24.69539983924957 L26.036615487852476 24.491289635741794 L26.056380980260222 24.246450079134785 L26.08060757902107 23.946349804558373 L26.11110027226995 23.5686300219799 L26.150790362924763 23.076980029298312 z"/>
<path fill="#000000" stroke="#000000" d="M25.99687411440324 24.98357 L25.99687411440324 24.98357 L25.99687411440324 25.01393 L25.99687411440324 25.1305 L25.99687411440324 25.23552 L25.99687411440324 25.33089 L25.99687411440324 25.41815 L25.99687411440324 25.49851 L25.99687411440324 25.57298 L25.99687411440324 25.64239 L25.99687411440324 26.35783 L25.99687411440324 26.371 L25.99687411440324 26.38879 L25.99687411440324 26.4092 L25.99687411440324 26.43012 L25.99687411440324 26.44947 L25.99687411440324 26.46523 L25.99687411440324 26.47556 L25.99687411440324 26.99687 L25.99687411440324 26.99687 L25.99687411440324 26.47556 L25.99687411440324 26.46523 L25.99687411440324 26.44947 L25.99687411440324 26.43012 L25.99687411440324 26.4092 L25.99687411440324 26.38879 L25.99687411440324 26.371 L25.99687411440324 26.35783 L25.99687411440324 25.64239 L25.99687411440324 25.57298 L25.99687411440324 25.49851 L25.99687411440324 25.41815 L25.99687411440324 25.33089 L25.99687411440324 25.23552 L25.99687411440324 25.1305 L25.99687411440324 25.01393 z"/>
<path fill="#000000" stroke="#000000" d="M26.15887722629008 29.003640450771734 L26.15887722629008 29.003640450771734 L26.216310236864288 29.357039961505805 L26.31050429773445 29.93663930155017 L26.44730547099418 30.778410736035084 L26.4818333729877 30.990869451836144 L26.4818333729877 30.990869451836144 L26.44730547099418 30.778410736035084 L26.31050429773445 29.93663930155017 L26.216310236864288 29.357039961505805 z"/>
<path fill="#000000" stroke="#000000" d="M25.098726977955398 28.507310412774583 L25.098726977955398 28.507310412774583 L25.371598072428856 30.505080263282803 L25.371598072428856 30.505080263282803 z"/>
<path fill="#000000" stroke="#000000" d="M26.96364649561864 32.94566086375242 L26.96364649561864 32.94566086375242 L26.481833602019037 30.990869112182043 L26.481833602019037 30.990869112182043 z"/>
<path fill="#000000" stroke="#000000" d="M34.3985302111654 44.70298978015352 L34.3985302111654 44.70298978015352 L33.08488938527125 43.44122064000042 L32.946537875880665 43.30833221144247 L32.946537875880665 43.30833221144247 L33.08488938527125 43.44122064000042 z"/>
<path fill="#000000" stroke="#000000" d="M25.9968739365522 26.99686968220865 L25.9968739365522 26.99686968220865 L26.01097154318869 27.17149987542093 L26.016002527289675 27.233819795976085 L26.02137504745372 27.30037039981087 L26.027142233649556 27.371809819681165 L26.033368031071312 27.448930158948354 L26.04013142973872 27.532709884579557 L26.04752778454305 27.624330178850173 L26.055677314124093 27.72528021682632 L26.06472937014694 27.83741005084699 L26.07487366609165 27.963069704042482 L26.086358918796606 28.10534008728376 L26.099511166258427 28.268259905849884 L26.114772047021166 28.457299834747367 L26.132751865396358 28.680019849409636 L26.154317663097963 28.947160188654234 L26.15887720307057 29.003640225791486 L26.15887720307057 29.003640225791486 L26.154317663097963 28.947160188654234 L26.132751865396358 28.680019849409636 L26.114772047021166 28.457299834747367 L26.099511166258427 28.268259905849884 L26.086358918796606 28.10534008728376 L26.07487366609165 27.963069704042482 L26.06472937014694 27.83741005084699 L26.055677314124093 27.72528021682632 L26.04752778454305 27.624330178850173 L26.04013142973872 27.532709884579557 L26.033368031071312 27.448930158948354 L26.027142233649556 27.371809819681165 L26.02137504745372 27.30037039981087 L26.016002527289675 27.233819795976085 L26.01097154318869 27.17149987542093 z"/>
<path fill="#000000" stroke="#000000" d="M24.981487959936462 26.494400118820167 L24.981487959936462 26.494400118820167 L25.09872662129154 28.50731019678736 L25.09872662129154 28.50731019678736 z"/>
<path fill="#000000" stroke="#000000" d="M25.020586912730842 24.478459940122477 L25.020586912730842 24.478459940122477 L24.981487799236568 26.494399957316237 L24.981487799236568 26.494399957316237 z"/>
<path fill="#000000" stroke="#000000" d="M25.215788554906524 22.471609859438995 L25.215788554906524 22.471609859438995 L25.020586773183293 24.478459686134773 L25.020586773183293 24.478459686134773 z"/>
<path fill="#000000" stroke="#000000" d="M26.481832860794658 20.989580464924384 L26.481832860794658 20.989580464924384 L26.306463645991172 22.068670592531237 L26.158876714097012 22.976809465988786 L26.158876714097012 22.976809465988786 L26.306463645991172 22.068670592531237 z"/>
<path fill="#000000" stroke="#000000" d="M25.565919254254332 20.48591986850492 L25.565919254254332 20.48591986850492 L25.215788553712045 22.47160974498041 L25.215788553712045 22.47160974498041 z"/>
<path fill="#000000" stroke="#000000" d="M26.48183285035487 20.989580702549375 L26.48183285035487 20.989580702549375 L26.963645743954476 19.034788950978992 L26.963645743954476 19.034788950978992 z"/>
<path fill="#000000" stroke="#000000" d="M26.06887147835368 18.533340380799313 L26.06887147835368 18.533340380799313 L25.565919485003064 20.485919867345356 L25.565919485003064 20.485919867345356 z"/>
<path fill="#000000" stroke="#000000" d="M26.068871360653468 18.53334046556103 L26.068871360653468 18.53334046556103 L26.721623235182722 16.625601106949738 L26.721623235182722 16.625601106949738 z"/>
<path fill="#000000" stroke="#000000" d="M28.459940502587045 12.990220316768252 L28.459940502587045 12.990220316768252 L29.535051340971258 11.284440845181196 L29.535051340971258 11.284440845181196 z"/>
<path fill="#000000" stroke="#000000" d="M31.611476335377482 10.179087246214825 L31.611476335377482 10.179087246214825 L30.931110194204372 11.084490145935119 L30.402003811580403 11.788602864216863 L30.402003811580403 11.788602864216863 L30.931110194204372 11.084490145935119 z"/>
<path fill="#000000" stroke="#000000" d="M32.946541070925974 8.672110948757627 L32.946541070925974 8.672110948757627 L32.406157560597364 9.282077838877848 L31.611476711552665 10.17908708668988 L31.611476711552665 10.17908708668988 L32.406157560597364 9.282077838877848 z"/>
<path fill="#000000" stroke="#000000" d="M32.06488288611296 8.14794251870259 L32.06488288611296 8.14794251870259 L30.739109850357938 9.667109869407797 L30.739109850357938 9.667109869407797 z"/>
<path fill="#000000" stroke="#000000" d="M32.946541255692416 8.672111307314289 L32.946541255692416 8.672111307314289 L33.976593027002764 7.6827331514437045 L34.39853359097714 7.277453738603222 L34.39853359097714 7.277453738603222 L33.976593027002764 7.6827331514437045 z"/>
<path fill="#000000" stroke="#000000" d="M32.06488255026297 8.147942600204885 L32.06488255026297 8.147942600204885 L33.50439182256112 6.736081858252411 L33.50439182256112 6.736081858252411 z"/>
<path fill="#000000" stroke="#000000" d="M36.68936866056505 4.267538126027638 L36.68936866056505 4.267538126027638 L35.04898353521247 5.440014946033779 L35.04898353521247 5.440014946033779 z"/>
<path fill="#000000" stroke="#000000" d="M37.61495168373415 4.860472439310044 L37.61495168373415 4.860472439310044 L37.377022254579025 5.024703266321615 L35.95804280382209 6.004154062037581 L35.95804280382209 6.004154062037581 L37.377022254579025 5.024703266321615 z"/>
<path fill="#000000" stroke="#000000" d="M36.689368962108965 4.267538280222517 L36.689368962108965 4.267538280222517 L38.415670117716495 3.2257101950553326 L38.415670117716495 3.2257101950553326 z"/>
<path fill="#000000" stroke="#000000" d="M37.6149513925249 4.860472411923883 L37.6149513925249 4.860472411923883 L39.18994100260954 3.9511517365706594 L39.3585211288847 3.85382195528567 L39.3585211288847 3.85382195528567 L39.18994100260954 3.9511517365706594 z"/>
<path fill="#000000" stroke="#000000" d="M42.08407766799998 1.5582142919377941 L42.08407766799998 1.5582142919377941 L40.21751895388837 2.320787439421026 L40.21751895388837 2.320787439421026 z"/>
<path fill="#000000" stroke="#000000" d="M44.00411026256679 0.9425808188908816 L44.00411026256679 0.9425808188908816 L42.08407818244941 1.558214331440109 L42.08407818244941 1.558214331440109 z"/>
<path fill="#000000" stroke="#000000" d="M45.96607896238237 0.4775856219469728 L45.96607896238237 0.4775856219469728 L44.004110181314 0.9425807650239297 L44.004110181314 0.9425807650239297 z"/>
<path fill="#000000" stroke="#000000" d="M45.96607929046709 0.47758546326183665 L45.96607929046709 0.47758546326183665 L47.95817948057937 0.16602667883564037 L47.95817948057937 0.16602667883564037 z"/>
<path fill="#000000" stroke="#000000" d="M48.964930151748916 1.071291249764748 L48.964930151748916 1.071291249764748 L46.96631957618132 1.3139665095391422 L46.96631957618132 1.3139665095391422 z"/>
<path fill="#000000" stroke="#000000" d="M50.976600134581396 0.9902233396029935 L50.976600134581396 0.9902233396029935 L48.967029849027504 1.0712062536563 L48.964930035191216 1.0712908732611253 L48.964930035191216 1.0712908732611253 L48.967029849027504 1.0712062536563 z"/>
<path fill="#000000" stroke="#000000" d="M51.98476 0.009776617445027114 L51.98476 0.009776617445027114 L49.96844 0.009776617445023561 L49.96844 0.009776617445023561 z"/>
<path fill="#000000" stroke="#000000" d="M52.988259978002255 1.0712905458682185 L52.988259978002255 1.0712905458682185 L50.98477987677283 0.9905530578504881 L50.97659986239872 0.9902234145402754 L50.97659986239872 0.9902234145402754 L50.98477987677283 0.9905530578504881 z"/>
<path fill="#000000" stroke="#000000" d="M53.99501033179937 0.16602573117433453 L53.99501033179937 0.16602573117433453 L51.984760253655885 0.009776736543727056 L51.984760253655885 0.009776736543727056 z"/>
<path fill="#000000" stroke="#000000" d="M54.9868803967565 1.3139667324162034 L54.9868803967565 1.3139667324162034 L52.99633983609779 1.072271349856082 L52.98825996647989 1.0712902760628968 L52.98825996647989 1.0712902760628968 L52.99633983609779 1.072271349856082 z"/>
<path fill="#000000" stroke="#000000" d="M53.99501071370929 0.16602543655804913 L53.99501071370929 0.16602543655804913 L55.98712066506099 0.4775857476142368 L55.98712066506099 0.4775857476142368 z"/>
<path fill="#000000" stroke="#000000" d="M123.94491166608282 14.904686257916689 L123.94491166608282 14.904686257916689 L123.17358101279872 14.56126772521683 L122.02655125763128 14.050577175313858 L122.02655125763128 14.050577175313858 L123.17358101279872 14.56126772521683 z"/>
<path fill="#000000" stroke="#000000" d="M123.0458218526888 24.675363208951126 L123.0458218526888 24.675363208951126 L124.8654620069157 23.624793476079972 L124.8654620069157 23.624793476079972 z"/>
<path fill="#000000" stroke="#000000" d="M124.72948160309329 22.369330925546354 L124.72948160309329 22.369330925546354 L124.90031323145618 22.0734418656821 L125.77943301237342 20.550761739194606 L125.77943301237342 20.550761739194606 L124.90031323145618 22.0734418656821 z"/>
<path fill="#000000" stroke="#000000" d="M123.04581892331024 13.305081864881384 L123.04581892331024 13.305081864881384 L124.86545907753714 14.355651597752539 L124.86545907753714 14.355651597752539 z"/>
<path fill="#000000" stroke="#000000" d="M125.35002661600318 16.465221099527216 L125.35002661600318 16.465221099527216 L125.85844099878415 18.029959675475354 L125.99893283263366 18.462349079621532 L125.99893283263366 18.462349079621532 L125.85844099878415 18.029959675475354 z"/>
<path fill="#000000" stroke="#000000" d="M126.93468583220681 17.93965151695266 L126.93468583220681 17.93965151695266 L126.21605135141164 15.965219508126388 L126.21605135141164 15.965219508126388 z"/>
<path fill="#000000" stroke="#000000" d="M126.93468597441633 20.04079 L126.93468597441633 20.04079 L126.93468597441633 17.93965 L126.93468597441633 17.93965 z"/>
<path fill="#000000" stroke="#000000" d="M126.21605352567607 22.01522128324115 L126.21605352567607 22.01522128324115 L126.93468800647126 20.040789274414877 L126.93468800647126 20.040789274414877 z"/>
<path fill="#000000" stroke="#000000" d="M126.21605328614974 22.015222757407045 L126.21605328614974 22.015222757407045 L124.8654635247794 23.6247929576411 L124.8654635247794 23.6247929576411 z"/>
<path fill="#000000" stroke="#000000" d="M123.03061871681086 23.603628233841683 L123.03061871681086 23.603628233841683 L124.72948155137433 22.369332135283592 L124.72948155137433 22.369332135283592 z"/>
<path fill="#000000" stroke="#000000" d="M123.04582144072087 24.67536353237714 L123.04582144072087 24.67536353237714 L60.8097981465358 50.05904545565369 L60.8097981465358 50.05904545565369 z"/>
<path fill="#000000" stroke="#000000" d="M56.97261012738799 51.289390457622716 L56.97261012738799 51.289390457622716 L58.91507922803789 50.74866722683904 L58.91507922803789 50.74866722683904 z"/>
<path fill="#000000" stroke="#000000" d="M56.95948979543037 50.26376899795167 L56.95948979543037 50.26376899795167 L55.92247922850931 50.47547622098867 L54.98688003352407 50.66648016421179 L54.98688003352407 50.66648016421179 L55.92247922850931 50.47547622098867 z"/>
<path fill="#000000" stroke="#000000" d="M54.994089813481665 51.67795905028305 L54.994089813481665 51.67795905028305 L56.97261006676549 51.28939033995758 L56.97261006676549 51.28939033995758 z"/>
<path fill="#000000" stroke="#000000" d="M54.994089907520866 51.67795920879046 L54.994089907520866 51.67795920879046 L52.991400010078415 51.91204008622639 L52.991400010078415 51.91204008622639 z"/>
<path fill="#000000" stroke="#000000" d="M50.97659986239872 50.990223414540274 L50.97659986239872 50.990223414540274 L49.913330196986884 50.94737511182079 L48.96493016534147 50.90915589709376 L48.96493016534147 50.90915589709376 L49.913330196986884 50.94737511182079 z"/>
<path fill="#000000" stroke="#000000" d="M50.97659986753856 51.99022341355387 L50.97659986753856 51.99022341355387 L48.961799999882054 51.91204000303922 L48.961799999882054 51.91204000303922 z"/>
<path fill="#000000" stroke="#000000" d="M46.966319891952175 50.66648052925325 L46.966319891952175 50.66648052925325 L45.883470952281364 50.44541533541736 L44.99371013004588 50.263769362993116 L44.99371013004588 50.263769362993116 L45.883470952281364 50.44541533541736 z"/>
<path fill="#000000" stroke="#000000" d="M46.9591101173445 51.67795940250342 L46.9591101173445 51.67795940250342 L44.980589864060676 51.28939069217795 L44.980589864060676 51.28939069217795 z"/>
<path fill="#000000" stroke="#000000" d="M41.17743065501269 48.98970827287346 L41.17743065501269 48.98970827287346 L41.94547967902529 49.28099084634074 L43.05989843315315 49.703634131435585 L43.05989843315315 49.703634131435585 L41.94547967902529 49.28099084634074 z"/>
<path fill="#000000" stroke="#000000" d="M43.03812087977394 50.74866758284094 L43.03812087977394 50.74866758284094 L41.14340142044473 50.05904609736017 L41.14340142044473 50.05904609736017 z"/>
<path fill="#000000" stroke="#000000" d="M39.35851839882909 48.126623374396196 L39.35851839882909 48.126623374396196 L40.039741145166026 48.44986758661371 L41.1774309061431 48.98970809034387 L41.1774309061431 48.98970809034387 L40.039741145166026 48.44986758661371 z"/>
<path fill="#000000" stroke="#000000" d="M39.30781923041962 49.22467139473166 L39.30781923041962 49.22467139473166 L37.542417758909174 48.250564061590445 L37.542417758909174 48.250564061590445 z"/>
<path fill="#000000" stroke="#000000" d="M37.61495279327335 47.11997516190862 L37.61495279327335 47.11997516190862 L38.19083835639848 47.45246284680133 L39.358518199506136 48.126623118546846 L39.358518199506136 48.126623118546846 L38.19083835639848 47.45246284680133 z"/>
<path fill="#000000" stroke="#000000" d="M37.61495319607148 47.11997536969107 L37.61495319607148 47.11997536969107 L36.40913200406871 46.28765709660522 L35.95803964107822 45.976290519987955 L35.95803964107822 45.976290519987955 L36.40913200406871 46.28765709660522 z"/>
<path fill="#000000" stroke="#000000" d="M32.77095086009447 44.55239905218695 L32.77095086009447 44.55239905218695 L34.26412109512033 45.90737879319149 L34.26412109512033 45.90737879319149 z"/>
<path fill="#000000" stroke="#000000" d="M31.611478317204664 41.80136149082657 L31.611478317204664 41.80136149082657 L32.94653771303359 43.308332026075426 L32.94653771303359 43.308332026075426 z"/>
<path fill="#000000" stroke="#000000" d="M32.77095071249886 44.55239932779199 L32.77095071249886 44.55239932779199 L31.387268275390372 43.08578162708526 L31.387268275390372 43.08578162708526 z"/>
<path fill="#000000" stroke="#000000" d="M30.4020005625751 40.19183957725223 L30.4020005625751 40.19183957725223 L31.547597332425283 41.71635200455235 L31.611477888962682 41.80136158634163 L31.611477888962682 41.80136158634163 L31.547597332425283 41.71635200455235 z"/>
<path fill="#000000" stroke="#000000" d="M28.980951993132383 39.853538633001634 L28.980951993132383 39.853538633001634 L30.12139882653833 41.5163508048237 L30.12139882653833 41.5163508048237 z"/>
<path fill="#000000" stroke="#000000" d="M27.972789637054852 38.10735020954647 L27.972789637054852 38.10735020954647 L28.980952086972035 39.85353879508613 L28.980952086972035 39.85353879508613 z"/>
<path fill="#000000" stroke="#000000" d="M29.32596172391446 38.49021909521989 L29.32596172391446 38.49021909521989 L28.63648568698591 37.17653226364441 L28.39033965405712 36.70754018156483 L28.39033965405712 36.70754018156483 L28.63648568698591 37.17653226364441 z"/>
<path fill="#000000" stroke="#000000" d="M27.10298128683311 36.28829938467976 L27.10298128683311 36.28829938467976 L27.972790001270415 38.107349999392525 L27.972790001270415 38.107349999392525 z"/>
<path fill="#000000" stroke="#000000" d="M27.102981159563544 36.28829955230329 L27.102981159563544 36.28829955230329 L26.37674876607045 34.407310476408725 L26.37674876607045 34.407310476408725 z"/>
<path fill="#000000" stroke="#000000" d="M26.96364665702175 32.94566111605012 L26.96364665702175 32.94566111605012 L27.601194034627923 34.85534865304328 L27.601194034627923 34.85534865304328 z"/>
<path fill="#000000" stroke="#000000" d="M26.37675 34.40731 L27.10298 36.2883 L27.97279 38.10735 L28.98095 39.85354 L30.1214 41.51635 L31.38727 43.08578 L32.77095 44.5524 L34.26412 45.90738 L35.85781 47.14258 L37.54242 48.25056 L39.30782 49.22467 L41.1434 50.05905 L43.03812 50.74867 L44.98059 51.28939 L46.95911 51.67796 L48.9618 51.91204 L50.9766 51.99022 L52.9914 51.91204 L54.99409 51.67796 L56.97261 51.28939 L58.91508 50.74867 L60.8098 50.05905 L123.04582 24.67536 L124.86546 23.62479 L126.21605 22.01522 L126.93469 20.04079 L126.93469 17.93965 L126.21605 15.96522 L124.86546 14.35565 L123.04582 13.30508 L55.98712 0.47759 L53.99501 0.16603 L51.98476 0.00978 L49.96844 0.00978 L47.95818 0.16603 L45.96608 0.47759 L44.00411 0.94258 L42.08408 1.55822 L40.21752 2.32079 L38.41567 3.22571 L36.68937 4.26754 L35.04898 5.44001 L33.50439 6.73608 L32.06488 8.14794 L30.73911 9.66711 L29.53505 11.28444 L28.45994 12.99022 L27.52025 14.77419 L26.72162 16.6256 L26.06887 18.53334 L25.56592 20.48592 L25.21579 22.47161 L25.02059 24.47846 L24.98149 26.4944 L25.09873 28.50731 L25.3716 30.50508 L25.79846 32.47569 M27.60119 34.85535 L26.96365 32.94566 L26.48183 30.99087 L26.44731 30.77841 L26.3105 29.93664 L26.21631 29.35704 L26.15888 29.00364 L26.15432 28.94716 L26.13275 28.68002 L26.11477 28.4573 L26.09951 28.26826 L26.08636 28.10534 L26.07487 27.96307 L26.06473 27.83741 L26.05568 27.72528 L26.04753 27.62433 L26.04013 27.53271 L26.03337 27.44893 L26.02714 27.37181 L26.02138 27.30037 L26.016 27.23382 L26.01097 27.1715 L25.99687 26.99687 L25.99687 26.47556 L25.99687 26.46523 L25.99687 26.44947 L25.99687 26.43012 L25.99687 26.4092 L25.99687 26.38879 L25.99687 26.371 L25.99687 26.35783 L25.99687 25.64239 L25.99687 25.57298 L25.99687 25.49851 L25.99687 25.41815 L25.99687 25.33089 L25.99687 25.23552 L25.99687 25.1305 L25.99687 25.01393 L25.99687 24.98357 L26.00615 24.86866 L26.02014 24.6954 L26.03662 24.49129 L26.05638 24.24645 L26.08061 23.94635 L26.1111 23.56863 L26.15079 23.07698 L26.15888 22.97681 L26.30646 22.06867 L26.48183 20.98958 L26.96365 19.03479 L27.60119 17.1251 L28.22434 15.66253 L28.39034 15.27291 L29.32596 13.49022 L29.55483 13.1283 L30.402 11.7886 L30.93111 11.08449 L31.61148 10.17909 L32.40616 9.28208 L32.94654 8.67211 L33.97659 7.68273 L34.39853 7.27745 L35.6362 6.26693 L35.95804 6.00415 L37.37702 5.0247 L37.61495 4.86047 L39.18994 3.95115 L39.35852 3.85382 L41.06498 3.0441 L41.17743 2.99074 L42.9915 2.30275 L43.0599 2.27681 L44.95841 1.7269 L44.99371 1.71668 L46.95422 1.31644 L46.96632 1.31397 L48.96493 1.07129 L48.96703 1.07121 L50.9766 0.99022 L50.98478 0.99055 L52.98826 1.07129 L52.99634 1.07227 L54.98688 1.31397 L54.98972 1.31451 L120.15155 13.69435 L122.02655 14.05058 L123.17358 14.56127 L123.94491 14.90469 L125.01253 16.0904 L125.35003 16.46522 L125.85844 18.02996 L125.99893 18.46235 L125.82566 20.111 L125.77943 20.55076 L124.90031 22.07344 L124.72948 22.36933 L123.03062 23.60363 L122.83571 23.68311 L120.2764 24.72673 L60.77576 48.98971 L59.76613 49.37261 L58.8933 49.70363 L57.86835 50.00051 L56.95949 50.26377 L55.92248 50.47548 L54.98688 50.66648 L53.94012 50.79358 L52.98826 50.90916 L51.9331 50.95168 L50.9766 50.99022 L49.91333 50.94738 L48.96493 50.90916 L47.89281 50.77898 L46.96632 50.66648 L45.88347 50.44542 L44.99371 50.26377 L43.89716 49.94615 L43.0599 49.70363 L41.94548 49.28099 L41.17743 48.98971 L40.03974 48.44987 L39.35852 48.12662 L38.19084 47.45246 L37.61495 47.11998 L36.40913 46.28766 L35.95804 45.97629 L34.70425 44.9526 L34.39853 44.70299 L33.08489 43.44122 L32.94654 43.30833 L31.61148 41.80136 L31.5476 41.71635 L30.402 40.19184 L30.06291 39.65561 L29.32596 38.49022 L28.63649 37.17653 L28.39034 36.70754 z"/>
</svg>