<?xml version="1.0" encoding="UTF-8"?>
<!-- Generated by jsxcad -->
<!DOCTYPE svg PUBLIC "-//W3C//DTD SVG 1.1 Tiny//EN" "http://www.w3.org/Graphics/SVG/1.1/DTD/svg11-tiny.dtd">
<svg viewBox="-250 -250 500 500" width="500" height="500" xmlns="http://www.w3.org/2000/svg"><path d="M-21.1292258411373,-86.70571141861537L-39.45555509456006,-102.44237816184697L-29.334309161844782,-82.32384291212867z" style="fill:rgb(169,53,222)"/><path d="M-12.67037566992879,-90.57975242957933L-31.10188270416897,-106.89922621144227L-21.1292258411373,-86.70571141861537z" style="fill:rgb(157,47,222)"/><path d="M-29.334309161844782,-82.32384291212867L-47.48898860809381,-97.51890102057371L-37.21780496332265,-77.47004889837194z" style="fill:rgb(180,60,222)"/><path d="M-4.027143666363037,-93.91328260478683L-22.49671294146344,-110.8530898456285L-12.67037566992879,-90.57975242957933z" style="fill:rgb(145,43,221)"/><path d="M-37.21780496332265,-77.47004889837194L-55.13526885796775,-92.1681273506829L-44.71375487273377,-72.1832744222484z" style="fill:rgb(190,67,220)"/><path d="M4.729560182516429,-96.67674239394145L-13.710330669722527,-114.27076093554435L-4.027143666363037,-93.91328260478683z" style="fill:rgb(133,39,219)"/><path d="M-44.71375487273377,-72.1832744222484L-62.32940739220226,-86.43230021010638L-51.758190140035644,-66.5054194223249z" style="fill:rgb(200,75,217)"/><path d="M13.527335761140975,-98.84398163672702L-4.81451593842701,-117.12208714419828L4.729560182516429,-96.67674239394145z" style="fill:rgb(121,35,215)"/><path d="M-21.1292258411373,-86.70571141861537L-31.10188270416897,-106.89922621144227L-39.45555509456006,-102.44237816184697z" style="fill:rgb(169,53,222)"/><path d="M-12.67037566992879,-90.57975242957933L-22.49671294146344,-110.8530898456285L-31.10188270416897,-106.89922621144227z" style="fill:rgb(157,47,222)"/><path d="M-29.334309161844782,-82.32384291212867L-39.45555509456006,-102.44237816184697L-47.48898860809381,-97.51890102057371z" style="fill:rgb(180,60,222)"/><path d="M-51.758190140035644,-66.5054194223249L-69.00840114776233,-80.3567259714966L-58.2891732956526,-60.48151105341832z" style="fill:rgb(210,83,214)"/><path d="M22.2924981645014,-100.39225872089202L4.11746859886034,-119.3802482638441L13.527335761140975,-98.84398163672702z" style="fill:rgb(109,33,211)"/><path d="M-4.027143666363037,-93.91328260478683L-13.710330669722527,-114.27076093554435L-22.49671294146344,-110.8530898456285z" style="fill:rgb(145,43,221)"/><path d="M-37.21780496332265,-77.47004889837194L-47.48898860809381,-97.51890102057371L-55.13526885796775,-92.1681273506829z" style="fill:rgb(190,67,220)"/><path d="M4.729560182516429,-96.67674239394145L-4.81451593842701,-117.12208714419828L-13.710330669722527,-114.27076093554435z" style="fill:rgb(133,39,219)"/><path d="M-44.71375487273377,-72.1832744222484L-55.13526885796775,-92.1681273506829L-62.32940739220226,-86.43230021010638z" style="fill:rgb(200,75,217)"/><path d="M-39.45555509456006,-102.44237816184697L-31.001477632049824,-109.91512635993446L-35.300624151996196,-107.82639738473475zM-39.45555509456006,-102.44237816184697L-35.300624151996196,-107.82639738473475L-39.32355848596834,-105.5826666850008zM-31.10188270416897,-106.89922621144227L-26.793806002496442,-111.95942819073584L-31.001477632049824,-109.91512635993446z" style="fill:rgb(83,212,212)"/><path d="M-58.2891732956526,-60.48151105341832L-75.11157969519782,-73.98959913549558L-64.24714946468902,-54.15950018399703z" style="fill:rgb(218,92,209)"/><path d="M-31.10188270416897,-106.89922621144227L-22.425835959222415,-113.78393033915317L-26.793806002496442,-111.95942819073584zM-47.48898860809381,-97.51890102057371L-39.32355848596834,-105.5826666850008L-43.54658799641249,-103.22736872926555zM-47.48898860809381,-97.51890102057371L-43.54658799641249,-103.22736872926555L-47.322359255383176,-100.82979676289332zM-22.49671294146344,-110.8530898456285L-18.088649570003355,-115.5955883328348L-22.425835959222415,-113.78393033915317z" style="fill:rgb(83,212,212)"/><path d="M30.950317240078878,-101.30269369263023L13.011076318610458,-121.02175643775219L22.2924981645014,-100.39225872089202z" style="fill:rgb(97,32,207)"/><path d="M-39.45555509456006,-102.44237816184697L-31.10188270416897,-106.89922621144227L-31.001477632049824,-109.91512635993446zM-22.49671294146344,-110.8530898456285L-13.667717033047357,-117.15152851020416L-18.088649570003355,-115.5955883328348zM-31.10188270416897,-106.89922621144227L-22.49671294146344,-110.8530898456285L-22.425835959222415,-113.78393033915317zM-47.48898860809381,-97.51890102057371L-39.45555509456006,-102.44237816184697L-39.32355848596834,-105.5826666850008z" style="fill:rgb(83,212,212)"/><path d="M13.527335761140975,-98.84398163672702L4.11746859886034,-119.3802482638441L-4.81451593842701,-117.12208714419828z" style="fill:rgb(121,35,215)"/><path d="M-55.13526885796775,-92.1681273506829L-47.322359255383176,-100.82979676289332L-51.470493493883666,-98.19578024125997zM-55.13526885796775,-92.1681273506829L-51.470493493883666,-98.19578024125997L-54.92970646474422,-95.70611933553973z" style="fill:rgb(83,212,212)"/><path d="M-51.758190140035644,-66.5054194223249L-62.32940739220226,-86.43230021010638L-69.00840114776233,-80.3567259714966z" style="fill:rgb(210,83,214)"/><path d="M-13.710330669722527,-114.27076093554435L-9.249085400856659,-118.70663734069306L-13.667717033047357,-117.15152851020416zM-22.49671294146344,-110.8530898456285L-13.710330669722527,-114.27076093554435L-13.667717033047357,-117.15152851020416zM-55.13526885796775,-92.1681273506829L-47.48898860809381,-97.51890102057371L-47.322359255383176,-100.82979676289332zM-13.710330669722527,-114.27076093554435L-4.79959673210713,-119.98534971694313L-9.249085400856659,-118.70663734069306zM-62.32940739220226,-86.43230021010638L-54.92970646474422,-95.70611933553973L-59.01256348892664,-92.7675988984417zM-62.32940739220226,-86.43230021010638L-59.01256348892664,-92.7675988984417L-62.07889376295427,-90.26935663937239z" style="fill:rgb(83,212,212)"/><path d="M-64.24714946468902,-54.15950018399703L-80.58107000214927,-67.38206816990149L-69.57543568012392,-47.59034544491586z" style="fill:rgb(225,101,204)"/><path d="M-4.81451593842701,-117.12208714419828L-0.34028944763475993,-121.2668837673046L-4.79959673210713,-119.98534971694313zM-13.710330669722527,-114.27076093554435L-4.81451593842701,-117.12208714419828L-4.79959673210713,-119.98534971694313zM-62.32940739220226,-86.43230021010638L-55.13526885796775,-92.1681273506829L-54.92970646474422,-95.70611933553973z" style="fill:rgb(83,212,212)"/><path d="M22.2924981645014,-100.39225872089202L13.011076318610458,-121.02175643775219L4.11746859886034,-119.3802482638441z" style="fill:rgb(109,33,211)"/><path d="M39.42513150183816,-101.56027555671076L21.790707515150032,-122.02690057002582L30.950317240078878,-101.30269369263023z" style="fill:rgb(85,32,201)"/><path d="M-4.81451593842701,-117.12208714419828L4.1046145288319735,-122.25776016047254L-0.34028944763475993,-121.2668837673046z" style="fill:rgb(83,212,212)"/><path d="M-58.2891732956526,-60.48151105341832L-69.00840114776233,-80.3567259714966L-75.11157969519782,-73.98959913549558z" style="fill:rgb(218,92,209)"/><path d="M-69.00840114776233,-80.3567259714966L-62.07889376295427,-90.26935663937239L-66.11473380416996,-86.981206887167zM-4.81451593842701,-117.12208714419828L4.11746859886034,-119.3802482638441L4.1046145288319735,-122.25776016047254zM-69.00840114776233,-80.3567259714966L-66.11473380416996,-86.981206887167L-68.70445690936057,-84.58834782096946zM-69.00840114776233,-80.3567259714966L-62.32940739220226,-86.43230021010638L-62.07889376295427,-90.26935663937239zM4.11746859886034,-119.3802482638441L8.571408223232917,-123.25349391707972L4.1046145288319735,-122.25776016047254zM4.11746859886034,-119.3802482638441L12.969723728994698,-123.94605782597495L8.571408223232917,-123.25349391707972z" style="fill:rgb(83,212,212)"/><path d="M30.950317240078878,-101.30269369263023L21.790707515150032,-122.02690057002582L13.011076318610458,-121.02175643775219z" style="fill:rgb(97,32,207)"/><path d="M-69.57543568012392,-47.59034544491586L-85.36174012780717,-60.5882599708102L-74.2201530443135,-40.8279998113672z" style="fill:rgb(232,110,198)"/><path d="M-75.11157969519782,-73.98959913549558L-68.70445690936057,-84.58834782096946L-72.7205163317011,-80.87759458430946z" style="fill:rgb(83,212,212)"/><path d="M-64.24714946468902,-54.15950018399703L-75.11157969519782,-73.98959913549558L-80.58107000214927,-67.38206816990149z" style="fill:rgb(225,101,204)"/><path d="M47.64055542758804,-101.15432290563447L30.379828070714964,-122.37979965473967L39.42513150183816,-101.56027555671076z" style="fill:rgb(74,32,194)"/><path d="M4.11746859886034,-119.3802482638441L13.011076318610458,-121.02175643775219L12.969723728994698,-123.94605782597495zM-75.11157969519782,-73.98959913549558L-69.00840114776233,-80.3567259714966L-68.70445690936057,-84.58834782096946zM-75.11157969519782,-73.98959913549558L-72.7205163317011,-80.87759458430946L-74.74198058969479,-78.74850548896929zM13.011076318610458,-121.02175643775219L17.4185343831162,-124.64660160471841L12.969723728994698,-123.94605782597495zM13.011076318610458,-121.02175643775219L21.719437768567968,-125.03292931627979L17.4185343831162,-124.64660160471841zM-80.58107000214927,-67.38206816990149L-74.74198058969479,-78.74850548896929L-78.77548159097447,-74.50030162812733z" style="fill:rgb(83,212,212)"/><path d="M39.42513150183816,-101.56027555671076L30.379828070714964,-122.37979965473967L21.790707515150032,-122.02690057002582z" style="fill:rgb(85,32,201)"/><path d="M13.011076318610458,-121.02175643775219L21.790707515150032,-122.02690057002582L21.719437768567968,-125.03292931627979z" style="fill:rgb(83,212,212)"/><path d="M-69.57543568012392,-47.59034544491586L-80.58107000214927,-67.38206816990149L-85.36174012780717,-60.5882599708102z" style="fill:rgb(232,110,198)"/><path d="M-80.58107000214927,-67.38206816990149L-75.11157969519782,-73.98959913549558L-74.74198058969479,-78.74850548896929zM-80.58107000214927,-67.38206816990149L-78.77548159097447,-74.50030162812733L-80.12756075130305,-72.86222994913588z" style="fill:rgb(83,212,212)"/><path d="M-74.2201530443135,-40.8279998113672L-89.40212535593574,-53.665162440661035L-78.13113986930158,-33.92931040563261z" style="fill:rgb(237,120,191)"/><path d="M21.790707515150032,-122.02690057002582L26.132610053303907,-125.42936366530233L21.719437768567968,-125.03292931627979z" style="fill:rgb(83,212,212)"/><path d="M55.519991002475464,-100.07885356689275L38.70114889742084,-122.06877590988816L47.64055542758804,-101.15432290563447z" style="fill:rgb(64,34,187)"/><path d="M21.790707515150032,-122.02690057002582L30.276428586706185,-125.50677328489537L26.132610053303907,-125.42936366530233zM-85.36174012780717,-60.5882599708102L-80.12756075130305,-72.86222994913588L-84.22726590225766,-67.89540076730066z" style="fill:rgb(83,212,212)"/><path d="M47.64055542758804,-101.15432290563447L38.70114889742084,-122.06877590988816L30.379828070714964,-122.37979965473967z" style="fill:rgb(74,32,194)"/><path d="M-85.36174012780717,-60.5882599708102L-80.58107000214927,-67.38206816990149L-80.12756075130305,-72.86222994913588zM21.790707515150032,-122.02690057002582L30.379828070714964,-122.37979965473967L30.276428586706185,-125.50677328489537zM-85.36174012780717,-60.5882599708102L-84.22726590225766,-67.89540076730066L-84.79554392192526,-67.09200620565512z" style="fill:rgb(83,212,212)"/><path d="M-74.2201530443135,-40.8279998113672L-85.36174012780717,-60.5882599708102L-89.40212535593574,-53.665162440661035z" style="fill:rgb(237,120,191)"/><path d="M30.379828070714964,-122.37979965473967L34.64442588260384,-125.58839800290889L30.276428586706185,-125.50677328489537z" style="fill:rgb(83,212,212)"/><path d="M-78.13113986930158,-33.92931040563261L-92.65466728256848,-46.672443687876175L-81.26222254771983,-26.95382352342184z" style="fill:rgb(241,129,183)"/><path d="M30.379828070714964,-122.37979965473967L38.56243803787005,-125.36278476810358L34.64442588260384,-125.58839800290889z" style="fill:rgb(83,212,212)"/><path d="M62.98701011526787,-98.33283374849026L46.67714618527298,-121.08682350637478L55.519991002475464,-100.07885356689275z" style="fill:rgb(54,37,179)"/><path d="M-89.40212535593574,-53.665162440661035L-84.79554392192526,-67.09200620565512L-88.68420755372898,-61.59460520982864zM-89.40212535593574,-53.665162440661035L-85.36174012780717,-60.5882599708102L-84.79554392192526,-67.09200620565512zM30.379828070714964,-122.37979965473967L38.70114889742084,-122.06877590988816L38.56243803787005,-125.36278476810358z" style="fill:rgb(83,212,212)"/><path d="M55.519991002475464,-100.07885356689275L46.67714618527298,-121.08682350637478L38.70114889742084,-122.06877590988816z" style="fill:rgb(64,34,187)"/><path d="M38.70114889742084,-122.06877590988816L42.884083995044485,-125.11394086950561L38.56243803787005,-125.36278476810358z" style="fill:rgb(83,212,212)"/><path d="M-78.13113986930158,-33.92931040563261L-89.40212535593574,-53.665162440661035L-92.65466728256848,-46.672443687876175z" style="fill:rgb(241,129,183)"/><path d="M-92.65466728256848,-46.672443687876175L-88.68420755372898,-61.59460520982864L-89.02596000440583,-61.111461300482304z" style="fill:rgb(83,212,212)"/><path d="M-81.26222254771983,-26.95382352342184L-95.07643732439207,-39.672526113826486L-83.57188627254833,-19.963854545709605z" style="fill:rgb(244,139,175)"/><path d="M38.70114889742084,-122.06877590988816L46.49869649088267,-124.60416071650346L42.884083995044485,-125.11394086950561zM-92.65466728256848,-46.672443687876175L-89.02596000440583,-61.111461300482304L-91.73501069991019,-56.54293625686306z" style="fill:rgb(83,212,212)"/><path d="M69.96575562074636,-95.9207203271389L54.23046386942178,-119.43182261754838L62.98701011526787,-98.33283374849026z" style="fill:rgb(44,40,171)"/><path d="M-92.65466728256848,-46.672443687876175L-89.40212535593574,-53.665162440661035L-88.68420755372898,-61.59460520982864zM38.70114889742084,-122.06877590988816L46.67714618527298,-121.08682350637478L46.49869649088267,-124.60416071650346z" style="fill:rgb(83,212,212)"/><path d="M62.98701011526787,-98.33283374849026L54.23046386942178,-119.43182261754838L46.67714618527298,-121.08682350637478z" style="fill:rgb(54,37,179)"/><path d="M46.67714618527298,-121.08682350637478L50.781298691705906,-124.00016920508635L46.49869649088267,-124.60416071650346zM-95.07643732439207,-39.672526113826486L-91.73501069991019,-56.54293625686306L-93.1244873006119,-54.19971459663263z" style="fill:rgb(83,212,212)"/><path d="M-81.26222254771983,-26.95382352342184L-92.65466728256848,-46.672443687876175L-95.07643732439207,-39.672526113826486z" style="fill:rgb(244,139,175)"/><path d="M-95.07643732439207,-39.672526113826486L-93.1244873006119,-54.19971459663263L-93.83838042126727,-52.71303231528844zM46.67714618527298,-121.08682350637478L54.006151370928855,-123.24417588835166L50.781298691705906,-124.00016920508635z" style="fill:rgb(83,212,212)"/><path d="M-83.57188627254833,-19.963854545709605L-96.62975515056928,-32.73007749401113L-85.02386635410517,-13.02398448157187z" style="fill:rgb(246,149,167)"/><path d="M-95.07643732439207,-39.672526113826486L-92.65466728256848,-46.672443687876175L-91.73501069991019,-56.54293625686306z" style="fill:rgb(83,212,212)"/><path d="M76.38169274736718,-92.85273726837268L61.28428630643643,-117.10709857531288L69.96575562074636,-95.9207203271389z" style="fill:rgb(36,45,162)"/><path d="M46.67714618527298,-121.08682350637478L54.23046386942178,-119.43182261754838L54.006151370928855,-123.24417588835166zM-96.62975515056928,-32.73007749401113L-93.83838042126727,-52.71303231528844L-94.93338029375677,-50.43271230898869z" style="fill:rgb(83,212,212)"/><path d="M69.96575562074636,-95.9207203271389L61.28428630643643,-117.10709857531288L54.23046386942178,-119.43182261754838z" style="fill:rgb(44,40,171)"/><path d="M54.23046386942178,-119.43182261754838L58.26598082577496,-122.2455457053864L54.006151370928855,-123.24417588835166z" style="fill:rgb(83,212,212)"/><path d="M-83.57188627254833,-19.963854545709605L-95.07643732439207,-39.672526113826486L-96.62975515056928,-32.73007749401113z" style="fill:rgb(246,149,167)"/><path d="M54.23046386942178,-119.43182261754838L61.00556101052162,-121.30956461833162L58.26598082577496,-122.2455457053864zM-96.62975515056928,-32.73007749401113L-95.07643732439207,-39.672526113826486L-93.83838042126727,-52.71303231528844z" style="fill:rgb(83,212,212)"/><path d="M-85.02386635410517,-13.02398448157187L-97.28310877048091,-25.91195739840424L-85.58813264483412,-6.20098416977909z" style="fill:rgb(247,158,158)"/><path d="M-101.7267147733885,-19.679465506242533L-94.93338029375677,-50.43271230898869L-96.47911025305528,-47.213748075318684zM54.23046386942178,-119.43182261754838L61.28428630643643,-117.10709857531288L61.00556101052162,-121.30956461833162z" style="fill:rgb(83,212,212)"/><path d="M82.16254347332209,-89.14549378786495L67.76310009228047,-114.12171747454917L76.38169274736718,-92.85273726837268z" style="fill:rgb(29,50,153)"/><path d="M76.38169274736718,-92.85273726837268L67.76310009228047,-114.12171747454917L61.28428630643643,-117.10709857531288z" style="fill:rgb(36,45,162)"/><path d="M61.28428630643643,-117.10709857531288L65.2683311540621,-119.85319367367029L61.00556101052162,-121.30956461833162zM-101.7267147733885,-19.679465506242533L-96.47911025305528,-47.213748075318684L-99.04973760033245,-40.209614280962626z" style="fill:rgb(83,212,212)"/><path d="M-85.02386635410517,-13.02398448157187L-96.62975515056928,-32.73007749401113L-97.28310877048091,-25.91195739840424z" style="fill:rgb(247,158,158)"/><path d="M61.28428630643643,-117.10709857531288L67.41772600577963,-118.84640878018305L65.2683311540621,-119.85319367367029z" style="fill:rgb(83,212,212)"/><path d="M-85.58813264483412,-6.20098416977909L-97.01187568068474,-19.286468942054174L-85.24149990638226,0.4369138730229758z" style="fill:rgb(246,167,149)"/><path d="M61.28428630643643,-117.10709857531288L67.76310009228047,-114.12171747454917L67.41772600577963,-118.84640878018305zM-101.7267147733885,-19.679465506242533L-99.04973760033245,-40.209614280962626L-100.80073363331792,-33.24544045517636z" style="fill:rgb(83,212,212)"/><path d="M87.23870867558246,-84.82215405835842L73.59366561187238,-110.49112214539723L82.16254347332209,-89.14549378786495z" style="fill:rgb(22,56,144)"/><path d="M67.76310009228047,-114.12171747454917L71.719756640568,-116.83136986898158L67.41772600577963,-118.84640878018305z" style="fill:rgb(83,212,212)"/><path d="M82.16254347332209,-89.14549378786495L73.59366561187238,-110.49112214539723L67.76310009228047,-114.12171747454917z" style="fill:rgb(29,50,153)"/><path d="M-85.58813264483412,-6.20098416977909L-97.28310877048091,-25.91195739840424L-97.01187568068474,-19.286468942054174z" style="fill:rgb(246,167,149)"/><path d="M67.76310009228047,-114.12171747454917L73.16347443312486,-115.93109112004356L71.719756640568,-116.83136986898158zM-101.7267147733885,-19.679465506242533L-100.80073363331792,-33.24544045517636L-101.70138202138689,-26.381456204963495zM67.76310009228047,-114.12171747454917L73.59366561187238,-110.49112214539723L73.16347443312486,-115.93109112004356z" style="fill:rgb(83,212,212)"/><path d="M-85.24149990638226,0.4369138730229758L-95.79916133416036,-12.923208541291208L-83.96844478494597,6.82017542409295z" style="fill:rgb(244,175,139)"/><path d="M-101.7267147733885,-19.679465506242533L-99.09158729839032,-7.039453398774295L-94.93338029375677,-50.43271230898869z" style="fill:rgb(83,212,212)"/><path d="M91.54476542943561,-79.91303911222772L78.70543000216014,-106.23732164062822L87.23870867558246,-84.82215405835842z" style="fill:rgb(17,63,134)"/><path d="M73.59366561187238,-110.49112214539723L77.55323959318169,-113.19369679019256L73.16347443312486,-115.93109112004356z" style="fill:rgb(83,212,212)"/><path d="M87.23870867558246,-84.82215405835842L78.70543000216014,-106.23732164062822L73.59366561187238,-110.49112214539723z" style="fill:rgb(22,56,144)"/><path d="M-85.24149990638226,0.4369138730229758L-97.01187568068474,-19.286468942054174L-95.79916133416036,-12.923208541291208z" style="fill:rgb(244,175,139)"/><path d="M73.59366561187238,-110.49112214539723L78.161911392162,-112.69335281292891L77.55323959318169,-113.19369679019256zM73.59366561187238,-110.49112214539723L78.70543000216014,-106.23732164062822L78.161911392162,-112.69335281292891z" style="fill:rgb(83,212,212)"/><path d="M-83.96844478494597,6.82017542409295L-93.63688753533917,-6.891977417002878L-81.76223233300516,12.87904387264806z" style="fill:rgb(241,183,129)"/><path d="M95.02024895356513,-74.45560310684398L83.03204805701867,-101.3895211556216L91.54476542943561,-79.91303911222772z" style="fill:rgb(13,71,125)"/><path d="M78.70543000216014,-106.23732164062822L82.33647177283773,-109.26180605474586L78.161911392162,-112.69335281292891zM-99.09158729839032,-7.039453398774295L-97.01187568068474,-19.286468942054174L-97.28310877048091,-25.91195739840424z" style="fill:rgb(83,212,212)"/><path d="M91.54476542943561,-79.91303911222772L83.03204805701867,-101.3895211556216L78.70543000216014,-106.23732164062822z" style="fill:rgb(17,63,134)"/><path d="M-83.96844478494597,6.82017542409295L-95.79916133416036,-12.923208541291208L-93.63688753533917,-6.891977417002878z" style="fill:rgb(241,183,129)"/><path d="M-101.7267147733885,-19.679465506242533L-100.85814557412775,-13.202529988082066L-99.09158729839032,-7.039453398774295zM83.03204805701867,-101.3895211556216L82.70415687243381,-108.95956281166819L82.33647177283773,-109.26180605474586zM78.70543000216014,-106.23732164062822L83.03204805701867,-101.3895211556216L82.33647177283773,-109.26180605474586zM-98.33231196046944,-5.378256620217013L-95.79916133416036,-12.923208541291208L-97.01187568068474,-19.286468942054174zM83.03204805701867,-101.3895211556216L85.6150245379798,-105.78585488845195L82.70415687243381,-108.95956281166819z" style="fill:rgb(83,212,212)"/><path d="M97.61095645111166,-68.49498456619716L86.5122210935362,-95.98412189128703L95.02024895356513,-74.45560310684398z" style="fill:rgb(10,79,115)"/><path d="M-99.09158729839032,-7.039453398774295L-98.33231196046944,-5.378256620217013L-97.01187568068474,-19.286468942054174z" style="fill:rgb(83,212,212)"/><path d="M95.02024895356513,-74.45560310684398L86.5122210935362,-95.98412189128703L83.03204805701867,-101.3895211556216z" style="fill:rgb(13,71,125)"/><path d="M86.5122210935362,-95.98412189128703L87.11116118883494,-104.15461449208368L85.6150245379798,-105.78585488845195zM-99.09158729839032,-7.039453398774295L-99.08440854601018,-7.014431193858866L-98.33231196046944,-5.378256620217013zM83.03204805701867,-101.3895211556216L86.5122210935362,-95.98412189128703L85.6150245379798,-105.78585488845195zM-98.33231196046944,-5.378256620217013L-96.81058938811707,-2.0677513235466747L-95.79916133416036,-12.923208541291208zM-96.81058938811707,-2.0677513235466747L-93.63688753533917,-6.891977417002878L-95.79916133416036,-12.923208541291208zM86.5122210935362,-95.98412189128703L87.87753710634179,-103.01895378719303L87.11116118883494,-104.15461449208368z" style="fill:rgb(83,212,212)"/><path d="M97.61095645111166,-68.49498456619716L89.0909878515557,-90.06530238378406L86.5122210935362,-95.98412189128703z" style="fill:rgb(10,79,115)"/><path d="M101.90159061541786,-71.355295854827L95.32538854102718,-86.66880294892204L103.78111416799418,-65.02347726207022z" style="fill:rgb(246,168,147)"/><path d="M89.0909878515557,-90.06530238378406L89.05410516404865,-101.27542939542818L87.87753710634179,-103.01895378719303zM86.5122210935362,-95.98412189128703L89.0909878515557,-90.06530238378406L87.87753710634179,-103.01895378719303zM-96.81058938811707,-2.0677513235466747L-94.49582071909045,2.5949891031630723L-93.63688753533917,-6.891977417002878zM-96.81058938811707,-2.0677513235466747L-96.40211011929146,-1.1790960007281615L-94.49582071909045,2.5949891031630723z" style="fill:rgb(83,212,212)"/><path d="M101.90159061541786,-71.355295854827L93.47048078051971,-92.96714315020522L95.32538854102718,-86.66880294892204z" style="fill:rgb(246,168,147)"/><path d="M103.78111416799418,-65.02347726207022L96.24390433033358,-79.96823067908403L104.7411595557726,-58.30061995867514z" style="fill:rgb(247,160,156)"/><path d="M89.0909878515557,-90.06530238378406L90.72090186021543,-83.68473119057343L89.05410516404865,-101.27542939542818z" style="fill:rgb(83,212,212)"/><path d="M103.78111416799418,-65.02347726207022L95.32538854102718,-86.66880294892204L96.24390433033358,-79.96823067908403z" style="fill:rgb(247,160,156)"/><path d="M93.14475321678945,-58.104378577997934L90.71725279757068,-98.81089676707388L89.05410516404865,-101.27542939542818z" style="fill:rgb(83,212,212)"/><path d="M104.7411595557726,-58.30061995867514L96.19662730744221,-72.92438014611028L104.75267046872726,-51.246223580189074z" style="fill:rgb(246,151,164)"/><path d="M93.14475321678945,-58.104378577997934L93.47048078051971,-92.96714315020522L90.71725279757068,-98.81089676707388z" style="fill:rgb(83,212,212)"/><path d="M104.7411595557726,-58.30061995867514L96.24390433033358,-79.96823067908403L96.19662730744221,-72.92438014611028z" style="fill:rgb(246,151,164)"/><path d="M104.75267046872726,-51.246223580189074L95.16379945244263,-65.60254890503276L103.7960435187887,-43.92593858252362z" style="fill:rgb(245,142,173)"/><path d="M93.14475321678945,-58.104378577997934L95.32538854102718,-86.66880294892204L93.47048078051971,-92.96714315020522z" style="fill:rgb(83,212,212)"/><path d="M104.75267046872726,-51.246223580189074L96.19662730744221,-72.92438014611028L95.16379945244263,-65.60254890503276z" style="fill:rgb(245,142,173)"/><path d="M93.14475321678945,-58.104378577997934L96.24390433033358,-79.96823067908403L95.32538854102718,-86.66880294892204z" style="fill:rgb(83,212,212)"/><path d="M103.7960435187887,-43.92593858252362L93.13656669783482,-58.07396195314647L101.86230542206583,-36.41115778844882z" style="fill:rgb(243,133,180)"/><path d="M93.14475321678945,-58.104378577997934L96.19662730744221,-72.92438014611028L96.24390433033358,-79.96823067908403z" style="fill:rgb(83,212,212)"/><path d="M103.7960435187887,-43.92593858252362L95.16379945244263,-65.60254890503276L93.13656669783482,-58.07396195314647z" style="fill:rgb(243,133,180)"/><path d="M92.28919286216767,-55.924280791073365L91.36360459083946,-76.90190220860356L90.99091299011074,-69.78349260023276z" style="fill:rgb(83,212,212)"/><path d="M101.86230542206583,-36.41115778844882L90.11753029473405,-50.415003022527884L98.95373787493628,-28.778219138671698z" style="fill:rgb(239,124,188)"/><path d="M93.14475321678945,-58.104378577997934L95.16379945244263,-65.60254890503276L96.19662730744221,-72.92438014611028zM92.28919286216767,-55.924280791073365L93.14475321678945,-58.104378577997934L91.36360459083946,-76.90190220860356z" style="fill:rgb(83,212,212)"/><path d="M101.86230542206583,-36.41115778844882L93.13656669783482,-58.07396195314647L90.11753029473405,-50.415003022527884z" style="fill:rgb(239,124,188)"/><path d="M90.57673134571584,-51.57997877529164L90.99091299011074,-69.78349260023276L89.58602674559812,-62.403273877567315zM90.57673134571584,-51.57997877529164L92.28919286216767,-55.924280791073365L90.99091299011074,-69.78349260023276z" style="fill:rgb(83,212,212)"/><path d="M-81.76223233300516,12.87904387264806L-93.63688753533917,-6.891977417002878L-31.866147188728018,114.27438432096535z" style="fill:rgb(238,189,122)"/><path d="M92.28919286216767,-55.924280791073365L93.13656669783482,-58.07396195314647L93.14475321678945,-58.104378577997934zM87.98124253979334,-45.37629638989954L89.58602674559812,-62.403273877567315L87.14494974721855,-54.84115693330636zM87.98124253979334,-45.37629638989954L90.57673134571584,-51.57997877529164L89.58602674559812,-62.403273877567315zM87.98124253979334,-45.37629638989954L90.11753029473405,-50.415003022527884L90.57673134571584,-51.57997877529164zM-94.49582071909045,2.5949891031630723L-31.866147188728018,114.27438432096535L-93.63688753533917,-6.891977417002878z" style="fill:rgb(83,212,212)"/><path d="M98.95373787493628,-28.778219138671698L90.11753029473405,-50.415003022527884L22.803671729229343,108.35417533504672z" style="fill:rgb(238,122,189)"/><path d="M-81.76223233300516,12.87904387264806L-31.866147188728018,114.27438432096535L-19.531082567969165,134.41409247129513z" style="fill:rgb(238,189,122)"/><path d="M20.384808806823692,111.34865375912659L87.98124253979334,-45.37629638989954L87.14494974721855,-54.84115693330636zM-94.49582071909045,2.5949891031630723L-32.11664641452989,123.35689341738905L-31.866147188728018,114.27438432096535zM-94.49582071909045,2.5949891031630723L-34.445742083944886,121.48271859721957L-32.11664641452989,123.35689341738905z" style="fill:rgb(83,212,212)"/><path d="M98.95373787493628,-28.778219138671698L22.803671729229343,108.35417533504672L34.16396314481931,129.00907282542514z" style="fill:rgb(238,122,189)"/><path d="M20.384808806823692,111.34865375912659L87.14494974721855,-54.84115693330636L20.223751074698143,102.24317439337422zM20.384808806823692,111.34865375912659L22.803671729229343,108.35417533504672L87.98124253979334,-45.37629638989954z" style="fill:rgb(83,212,212)"/><path d="M-14.933751904888172,147.3271712616521L-34.445742083944886,121.48271859721957L-21.992070271367055,141.56678639427076z" style="fill:rgb(35,45,161)"/><path d="M-5.22023034310066,150.0241186912806L-27.330726874974424,127.20803135125308L-14.933751904888172,147.3271712616521z" style="fill:rgb(67,34,190)"/><path d="M-14.933751904888172,147.3271712616521L-27.330726874974424,127.20803135125308L-34.445742083944886,121.48271859721957z" style="fill:rgb(35,45,161)"/><path d="M-32.11664641452989,123.35689341738905L-26.42512421740013,121.22884995450791L-31.866147188728018,114.27438432096535z" style="fill:rgb(83,212,212)"/><path d="M5.9611423598826265,149.25635076223267L-17.47983421658248,129.83195432373344L-5.22023034310066,150.0241186912806z" style="fill:rgb(106,33,210)"/><path d="M34.16396314481931,129.00907282542514L15.432219571436649,117.47982884401716L27.00740247296697,138.02456209736073z" style="fill:rgb(219,93,209)"/><path d="M17.187468773544943,145.08095174515597L-6.09673816469151,128.9600729645898L5.9611423598826265,149.25635076223267z" style="fill:rgb(148,44,221)"/><path d="M-32.11664641452989,123.35689341738905L-26.565689197016578,127.4118057398328L-26.42512421740013,121.22884995450791z" style="fill:rgb(83,212,212)"/><path d="M27.00740247296697,138.02456209736073L5.368740052614066,124.66168251498726L17.187468773544943,145.08095174515597z" style="fill:rgb(187,64,221)"/><path d="M-5.22023034310066,150.0241186912806L-17.47983421658248,129.83195432373344L-27.330726874974424,127.20803135125308z" style="fill:rgb(67,34,190)"/><path d="M-32.11664641452989,123.35689341738905L-27.330726874974424,127.20803135125308L-26.565689197016578,127.4118057398328zM-26.565689197016578,127.4118057398328L-17.303330471517654,124.79419558011033L-26.42512421740013,121.22884995450791z" style="fill:rgb(83,212,212)"/><path d="M34.16396314481931,129.00907282542514L22.803671729229343,108.35417533504672L15.432219571436649,117.47982884401716z" style="fill:rgb(219,93,209)"/><path d="M5.9611423598826265,149.25635076223267L-6.09673816469151,128.9600729645898L-17.47983421658248,129.83195432373344z" style="fill:rgb(106,33,210)"/><path d="M-26.565689197016578,127.4118057398328L-17.377980214238136,129.82413783069487L-17.303330471517654,124.79419558011033z" style="fill:rgb(83,212,212)"/><path d="M27.00740247296697,138.02456209736073L15.432219571436649,117.47982884401716L5.368740052614066,124.66168251498726z" style="fill:rgb(187,64,221)"/><path d="M17.187468773544943,145.08095174515597L5.368740052614066,124.66168251498726L-6.09673816469151,128.9600729645898z" style="fill:rgb(148,44,221)"/><path d="M-26.565689197016578,127.4118057398328L-17.47983421658248,129.83195432373344L-17.377980214238136,129.82413783069487zM14.647113602453787,118.04010959158363L20.223751074698143,102.24317439337422L14.56882199863224,111.84420758815712zM-17.377980214238136,129.82413783069487L-6.072235425045538,124.2575329291845L-17.303330471517654,124.79419558011033zM14.647113602453787,118.04010959158363L20.384808806823692,111.34865375912659L20.223751074698143,102.24317439337422zM-17.377980214238136,129.82413783069487L-6.09673816469151,128.9600729645898L-6.072235425045538,124.2575329291845zM5.265572735656166,124.70035200328323L14.56882199863224,111.84420758815712L5.242827158799755,119.66438684925984zM-6.09673816469151,128.9600729645898L5.242827158799755,119.66438684925984L-6.072235425045538,124.2575329291845zM5.265572735656166,124.70035200328323L14.647113602453787,118.04010959158363L14.56882199863224,111.84420758815712zM14.647113602453787,118.04010959158363L15.432219571436649,117.47982884401716L20.384808806823692,111.34865375912659zM-6.09673816469151,128.9600729645898L5.265572735656166,124.70035200328323L5.242827158799755,119.66438684925984zM5.265572735656166,124.70035200328323L5.368740052614066,124.66168251498726L14.647113602453787,118.04010959158363z" style="fill:rgb(83,212,212)"/></svg>
